<?xml version="1.0" standalone="no"?>
<!DOCTYPE svg PUBLIC "-//W3C//DTD SVG 20010904//EN"
 "http://www.w3.org/TR/2001/REC-SVG-20010904/DTD/svg10.dtd">
<svg version="1.0" xmlns="http://www.w3.org/2000/svg"
 width="2000.000000pt" height="1200.000000pt" viewBox="0 0 2000.000000 1200.000000"
 preserveAspectRatio="xMidYMid meet">
<metadata>
Created by potrace 1.16, written by Peter Selinger 2001-2019
</metadata>
<g transform="translate(0.000000,1200.000000) scale(0.100000,-0.100000)"
fill="#000000" stroke="none">
<path d="M6730 9001 c0 -58 3 -70 18 -74 30 -9 146 -7 160 1 9 6 12 28 10 73
l-3 64 -92 3 -93 3 0 -70z"/>
<path d="M14077 9043 c-4 -3 -7 -28 -7 -54 0 -45 17 -79 41 -79 5 0 9 -7 9
-15 0 -13 11 -15 63 -13 l62 3 3 63 c2 50 0 62 -12 62 -8 0 -20 9 -26 20 -9
16 -21 20 -69 20 -32 0 -61 -3 -64 -7z"/>
<path d="M5656 8138 c-12 -1072 -25 -2346 -37 -3644 -12 -1232 -12 -1252 7
-1285 11 -19 35 -41 54 -51 32 -15 364 -16 4471 -20 l4436 -3 37 28 c20 16 42
41 48 55 10 26 4 829 -22 3052 -5 426 -12 1110 -15 1520 -3 410 -8 791 -11
846 l-6 102 -2986 6 c-1643 3 -3658 8 -4478 11 l-1491 6 -7 -623z m6785 -255
c14 -9 31 -24 38 -35 15 -24 45 -3766 31 -3804 -5 -12 -21 -31 -36 -40 -25
-17 -155 -17 -2266 -15 -1549 2 -2248 6 -2264 13 -55 25 -53 -87 -43 1943 5
1029 11 1882 15 1897 3 15 18 37 32 49 l27 21 2220 -7 c1941 -7 2223 -9 2246
-22z"/>
<path d="M9512 7788 c-17 -17 -15 -96 2 -114 8 -8 31 -14 51 -14 48 0 65 19
65 72 0 55 -13 68 -65 68 -23 0 -46 -5 -53 -12z"/>
<path d="M9652 7733 l3 -68 53 -3 c36 -2 57 1 67 12 18 18 19 42 3 50 -10 5
-10 7 0 12 6 3 12 12 12 21 0 29 -27 43 -85 43 l-56 0 3 -67z"/>
<path d="M9582 6891 c-18 -15 -22 -29 -22 -83 0 -87 21 -108 106 -107 85 2
104 21 104 109 0 87 -13 100 -102 100 -49 0 -70 -5 -86 -19z m166 -66 c5 -101
3 -105 -76 -105 -40 0 -73 5 -80 12 -16 16 -16 145 1 152 6 2 44 4 82 3 l70
-2 3 -60z"/>
<path d="M10658 6891 c-14 -13 -18 -34 -18 -85 0 -88 17 -105 106 -106 83 0
104 22 104 106 0 84 -22 104 -111 103 -47 0 -68 -5 -81 -18z m156 -7 c13 -5
16 -22 16 -79 0 -85 0 -85 -95 -85 -53 0 -66 3 -75 19 -14 27 -13 124 2 139
12 12 124 17 152 6z"/>
<path d="M9357 6672 c-24 -27 -24 -142 1 -168 24 -26 141 -27 169 -1 31 27 31
132 2 163 -19 21 -32 24 -89 24 -52 0 -71 -4 -83 -18z m157 -8 c12 -5 16 -21
16 -73 0 -39 -5 -72 -12 -79 -17 -17 -136 -16 -154 2 -17 18 -19 127 -2 144
12 12 124 17 152 6z"/>
<path d="M9583 6671 c-20 -16 -23 -29 -23 -84 0 -84 16 -100 105 -103 89 -2
105 14 105 104 0 88 -15 102 -103 102 -46 -1 -68 -6 -84 -19z m162 -13 c11
-35 10 -136 -2 -146 -16 -16 -136 -15 -151 0 -13 13 -17 140 -5 151 12 13 153
8 158 -5z"/>
<path d="M9807 6672 c-12 -13 -17 -37 -17 -85 0 -89 18 -107 105 -107 82 0
102 20 103 105 0 86 -19 105 -108 105 -52 0 -71 -4 -83 -18z m157 -8 c12 -5
16 -21 16 -73 0 -39 -5 -72 -12 -79 -17 -17 -136 -16 -154 2 -17 18 -19 127
-2 144 12 12 124 17 152 6z"/>
<path d="M10432 6667 c-18 -19 -22 -35 -22 -83 0 -84 21 -104 112 -104 86 0
98 13 98 106 0 90 -14 104 -103 104 -53 0 -67 -4 -85 -23z m168 -11 c13 -17
11 -124 -3 -143 -12 -17 -139 -17 -155 -1 -7 7 -12 39 -12 73 0 34 5 66 12 73
18 18 142 16 158 -2z"/>
<path d="M10658 6671 c-27 -27 -25 -144 2 -171 31 -31 138 -29 168 3 32 34 32
134 -1 165 -31 29 -142 31 -169 3z m156 -7 c13 -5 16 -22 16 -80 0 -85 -2 -87
-105 -82 l-60 3 -3 69 c-2 38 -1 75 2 83 6 14 118 19 150 7z"/>
<path d="M10882 6667 c-18 -19 -22 -35 -22 -83 0 -84 21 -104 112 -104 86 0
98 13 98 106 0 90 -14 104 -103 104 -53 0 -67 -4 -85 -23z m166 -9 c7 -7 12
-39 12 -73 0 -34 -5 -66 -12 -73 -12 -12 -124 -17 -152 -6 -12 5 -16 21 -16
73 0 39 5 72 12 79 7 7 40 12 78 12 38 0 71 -5 78 -12z"/>
<path d="M10735 6280 c-3 -5 -24 -10 -45 -10 -61 0 -70 -7 -70 -56 0 -24 4
-44 8 -44 5 0 9 -7 9 -15 0 -8 -4 -15 -9 -15 -4 0 -8 -20 -8 -45 0 -39 5 -50
36 -80 20 -19 42 -35 50 -35 8 0 14 -4 14 -10 0 -6 28 -10 65 -10 37 0 65 4
65 10 0 6 6 10 13 10 6 0 29 16 50 35 32 31 37 41 37 79 0 26 -5 46 -12 49
-10 3 -10 9 0 26 15 26 16 73 0 89 -7 7 -34 12 -60 12 -26 0 -48 5 -48 10 0 6
-20 10 -44 10 -25 0 -48 -4 -51 -10z m133 -53 c24 -24 42 -52 42 -65 0 -12 5
-22 10 -22 19 0 11 -89 -10 -110 -26 -26 -30 -25 -30 5 0 14 -4 25 -10 25 -13
0 -13 33 0 46 8 8 6 15 -5 24 -20 17 -19 30 3 31 10 0 12 3 5 6 -7 2 -13 11
-13 19 0 8 -9 14 -20 14 -17 0 -20 -7 -20 -40 0 -39 -1 -40 -35 -40 -34 0 -35
1 -35 39 0 31 -4 40 -21 44 -13 4 -22 0 -26 -11 -3 -9 -13 -25 -21 -34 -14
-16 -13 -20 3 -38 19 -22 28 -60 13 -60 -4 0 -8 -11 -8 -25 0 -30 -5 -31 -32
-5 -19 17 -20 26 -15 86 6 64 9 69 54 110 40 37 54 44 88 44 35 0 47 -6 83
-43z"/>
<path d="M10650 5815 c0 -8 -7 -15 -15 -15 -11 0 -15 -12 -15 -45 0 -33 4 -45
15 -45 8 0 15 -7 15 -15 0 -8 7 -15 15 -15 9 0 15 -9 15 -25 0 -27 27 -65 47
-65 7 0 13 -7 13 -15 0 -11 12 -15 45 -15 33 0 45 4 45 15 0 8 7 15 15 15 8 0
15 7 15 15 0 8 7 15 15 15 10 0 15 10 15 30 0 20 5 30 15 30 8 0 15 7 15 15 0
8 7 15 15 15 11 0 15 12 15 45 0 33 -4 45 -15 45 -8 0 -15 7 -15 15 0 11 -12
15 -50 15 -38 0 -50 -4 -50 -15 0 -8 -4 -15 -10 -15 -5 0 -10 -7 -10 -15 0 -8
-7 -15 -15 -15 -8 0 -15 7 -15 15 0 8 -7 15 -15 15 -8 0 -15 7 -15 15 0 11
-12 15 -45 15 -33 0 -45 -4 -45 -15z m85 -45 c0 -23 4 -25 48 -28 46 -3 47 -3
47 27 0 29 2 31 40 31 l40 0 0 -45 c0 -41 -2 -45 -24 -45 -22 0 -25 -5 -28
-42 -2 -28 -7 -42 -15 -40 -7 1 -13 -5 -13 -13 0 -11 -12 -15 -45 -15 -35 0
-45 4 -45 16 0 10 -6 14 -15 10 -12 -4 -15 4 -15 39 0 41 -2 45 -25 45 -19 0
-25 6 -27 23 0 12 -2 29 -3 37 -2 26 6 31 43 28 32 -3 37 -6 37 -28z"/>
<path d="M9168 4349 c-10 -10 -18 -25 -18 -32 0 -24 39 -46 87 -49 44 -3 48
-5 48 -28 0 -22 -5 -25 -38 -28 -26 -2 -39 1 -43 12 -3 9 -17 16 -30 16 -29 0
-30 -4 -4 -30 15 -15 33 -20 75 -20 56 0 95 22 95 53 0 24 -39 46 -87 49 -44
3 -48 5 -48 28 0 21 5 26 34 28 23 2 37 -2 43 -12 9 -17 43 -22 52 -8 3 5 -4
16 -15 25 -28 25 -128 22 -151 -4z"/>
<path d="M9608 4339 c-24 -24 -28 -36 -28 -89 0 -57 1 -60 25 -60 20 0 25 5
25 25 0 23 4 25 40 25 36 0 40 -2 40 -25 0 -20 5 -25 25 -25 24 0 25 2 25 65
0 39 -4 65 -10 65 -6 0 -21 11 -34 25 -31 34 -73 32 -108 -6z"/>
<path d="M9790 4280 c0 -89 0 -90 25 -90 20 0 25 5 25 25 0 14 6 25 13 25 8 0
20 -11 27 -25 11 -20 21 -25 52 -25 21 0 38 2 38 5 0 3 -11 16 -25 29 -14 13
-25 28 -25 35 0 6 11 11 25 11 21 0 25 5 25 30 0 51 -29 70 -110 70 l-70 0 0
-90z"/>
<path d="M10460 4345 c-7 -14 -19 -25 -27 -25 -9 0 -13 -13 -13 -40 0 -27 4
-40 13 -40 8 0 20 -11 27 -25 12 -23 19 -25 77 -25 l63 0 0 50 0 50 -35 0
c-19 0 -35 -4 -35 -10 0 -5 5 -10 10 -10 6 0 10 -13 10 -30 0 -25 -4 -30 -25
-30 -16 0 -25 6 -25 15 0 8 -7 15 -15 15 -11 0 -15 11 -15 40 0 29 4 40 15 40
8 0 15 7 15 15 0 11 12 15 50 15 28 0 50 5 50 10 0 6 -28 10 -63 10 -58 0 -65
-2 -77 -25z"/>
<path d="M10674 4345 c-10 -14 -24 -25 -31 -25 -9 0 -13 -19 -13 -65 0 -63 1
-65 25 -65 20 0 25 5 25 25 0 23 4 25 40 25 36 0 40 -2 40 -25 0 -20 5 -25 25
-25 24 0 25 3 25 60 0 54 -3 64 -30 90 -39 38 -80 40 -106 5z"/>
<path d="M10840 4280 c0 -89 0 -90 25 -90 23 0 25 3 25 50 0 38 4 50 15 50 9
0 15 -9 15 -25 0 -16 6 -25 15 -25 9 0 15 10 15 26 0 46 23 20 24 -27 1 -40 3
-44 26 -44 24 0 25 1 23 70 -1 39 -2 78 -3 88 0 11 -8 17 -25 17 -14 0 -25 -5
-25 -11 0 -12 -25 -39 -36 -39 -4 0 -17 11 -30 25 -13 14 -32 25 -44 25 -19 0
-20 -6 -20 -90z"/>
<path d="M11050 4280 l0 -90 95 0 c109 0 130 18 28 22 -65 3 -68 4 -68 28 0
23 4 25 53 28 28 2 52 7 52 12 0 5 -24 10 -52 12 -49 3 -53 5 -53 28 0 24 3
25 68 28 99 4 72 22 -34 22 l-89 0 0 -90z"/>
</g>
</svg>
